<mxfile host="app.diagrams.net" agent="Mozilla/5.0 (Windows NT 10.0; Win64; x64) AppleWebKit/537.36 (KHTML, like Gecko) Chrome/137.0.0.0 Safari/537.36" version="27.1.6">
  <diagram name="第 1 页" id="7vH5vC6cQCNAFp6cAhGH">
    <mxGraphModel dx="2945" dy="733" grid="1" gridSize="10" guides="1" tooltips="1" connect="1" arrows="1" fold="1" page="1" pageScale="1" pageWidth="827" pageHeight="1169" math="0" shadow="0">
      <root>
        <mxCell id="0" />
        <mxCell id="1" parent="0" />
        <mxCell id="GbW4LYhHCxAWFrPd17BB-1" value="" style="rounded=0;whiteSpace=wrap;html=1;fillColor=none;movable=0;resizable=0;rotatable=0;deletable=0;editable=0;locked=1;connectable=0;" vertex="1" parent="1">
          <mxGeometry x="-66" y="315" width="960" height="540" as="geometry" />
        </mxCell>
        <mxCell id="GbW4LYhHCxAWFrPd17BB-2" value="" style="rounded=0;whiteSpace=wrap;html=1;" vertex="1" parent="1">
          <mxGeometry x="-50" y="330" width="60" height="60" as="geometry" />
        </mxCell>
        <mxCell id="GbW4LYhHCxAWFrPd17BB-5" value="头像" style="text;strokeColor=none;align=center;fillColor=none;html=1;verticalAlign=middle;whiteSpace=wrap;rounded=0;" vertex="1" parent="1">
          <mxGeometry x="-50" y="345" width="60" height="30" as="geometry" />
        </mxCell>
        <mxCell id="GbW4LYhHCxAWFrPd17BB-8" value="" style="group" vertex="1" connectable="0" parent="1">
          <mxGeometry x="20" y="325" width="120" height="30" as="geometry" />
        </mxCell>
        <mxCell id="GbW4LYhHCxAWFrPd17BB-3" value="" style="rounded=0;whiteSpace=wrap;html=1;" vertex="1" parent="GbW4LYhHCxAWFrPd17BB-8">
          <mxGeometry y="5" width="120" height="20" as="geometry" />
        </mxCell>
        <mxCell id="GbW4LYhHCxAWFrPd17BB-6" value="血条" style="text;strokeColor=none;align=center;fillColor=none;html=1;verticalAlign=middle;whiteSpace=wrap;rounded=0;" vertex="1" parent="GbW4LYhHCxAWFrPd17BB-8">
          <mxGeometry x="30" width="60" height="30" as="geometry" />
        </mxCell>
        <mxCell id="GbW4LYhHCxAWFrPd17BB-9" value="" style="group" vertex="1" connectable="0" parent="1">
          <mxGeometry x="20" y="365" width="120" height="30" as="geometry" />
        </mxCell>
        <mxCell id="GbW4LYhHCxAWFrPd17BB-4" value="" style="rounded=0;whiteSpace=wrap;html=1;" vertex="1" parent="GbW4LYhHCxAWFrPd17BB-9">
          <mxGeometry y="5" width="120" height="20" as="geometry" />
        </mxCell>
        <mxCell id="GbW4LYhHCxAWFrPd17BB-7" value="蓝条" style="text;strokeColor=none;align=center;fillColor=none;html=1;verticalAlign=middle;whiteSpace=wrap;rounded=0;" vertex="1" parent="GbW4LYhHCxAWFrPd17BB-9">
          <mxGeometry x="30" width="60" height="30" as="geometry" />
        </mxCell>
        <mxCell id="GbW4LYhHCxAWFrPd17BB-10" value="" style="rounded=0;whiteSpace=wrap;html=1;fillColor=none;" vertex="1" parent="1">
          <mxGeometry x="210" y="780" width="370" height="60" as="geometry" />
        </mxCell>
        <mxCell id="GbW4LYhHCxAWFrPd17BB-11" value="技能条，5个格子" style="text;strokeColor=none;align=center;fillColor=none;html=1;verticalAlign=middle;whiteSpace=wrap;rounded=0;" vertex="1" parent="1">
          <mxGeometry x="347.5" y="795" width="95" height="30" as="geometry" />
        </mxCell>
      </root>
    </mxGraphModel>
  </diagram>
</mxfile>
